<?xml version="1.0" encoding="UTF-8" standalone="no"?>
<svg
   xmlns:dc="http://purl.org/dc/elements/1.1/"
   xmlns:cc="http://creativecommons.org/ns#"
   xmlns:rdf="http://www.w3.org/1999/02/22-rdf-syntax-ns#"
   xmlns:svg="http://www.w3.org/2000/svg"
   xmlns="http://www.w3.org/2000/svg"
   xmlns:sodipodi="http://sodipodi.sourceforge.net/DTD/sodipodi-0.dtd"
   xmlns:inkscape="http://www.inkscape.org/namespaces/inkscape"
   version="1.1"
   width="128"
   height="128"
   viewBox="0 0 128 128"
   id="svg4"
   sodipodi:docname="icon.ink.svg"
   inkscape:export-filename="/home/mapi/repo/tools-wiki-osu/resources/png/icon.png"
   inkscape:export-xdpi="96"
   inkscape:export-ydpi="96"
   inkscape:version="0.92.2 2405546, 2018-03-11">
  <metadata
     id="metadata10">
    <rdf:RDF>
      <cc:Work
         rdf:about="">
        <dc:format>image/svg+xml</dc:format>
        <dc:type
           rdf:resource="http://purl.org/dc/dcmitype/StillImage" />
        <dc:title></dc:title>
      </cc:Work>
    </rdf:RDF>
  </metadata>
  <defs
     id="defs8" />
  <sodipodi:namedview
     pagecolor="#ffffff"
     bordercolor="#666666"
     borderopacity="1"
     objecttolerance="10"
     gridtolerance="10"
     guidetolerance="10"
     inkscape:pageopacity="0"
     inkscape:pageshadow="2"
     inkscape:window-width="1920"
     inkscape:window-height="1004"
     id="namedview6"
     showgrid="false"
     inkscape:snap-bbox="true"
     inkscape:bbox-paths="true"
     inkscape:snap-page="true"
     inkscape:snap-bbox-midpoints="false"
     inkscape:snap-object-midpoints="true"
     inkscape:snap-center="false"
     inkscape:zoom="1.7383041"
     inkscape:cx="-130.2539"
     inkscape:cy="117.44879"
     inkscape:window-x="0"
     inkscape:window-y="0"
     inkscape:window-maximized="1"
     inkscape:current-layer="svg4" />
  <path
     d="M 53.333336,96 H 32.000003 V 85.33333 H 53.333336 V 96 m 0,-21.33333 H 32.000003 V 64 h 21.333333 v 10.66667 m 0,-69.33334 v 5.333335 H 32.000003 c -5.919999,0 -10.666666,4.746665 -10.666666,10.666665 v 85.33335 a 10.666667,10.666667 0 0 0 10.666666,10.66665 h 21.333333 v 5.33334 H 64.000003 V 5.33333 H 53.333336 m 53.333324,37.333334 v 64.000016 c 0,5.91999 -4.74666,10.66665 -10.666658,10.66665 H 74.66667 V 106.66668 H 96.000002 V 58.66667 H 74.66667 V 47.999997 h 23.999992 l -23.999992,-24 V 10.666665 l 31.99999,31.999999 M 85.333335,74.66667 H 74.66667 V 64 h 10.666665 v 10.66667 m 0,21.33333 H 74.66667 V 85.33333 h 10.666665 z"
     id="path2"
     inkscape:connector-curvature="0"
     style="fill:#1890ff;stroke-width:5.33333349" />
</svg>
